<?xml version="1.0" standalone="no"?>
<!DOCTYPE svg PUBLIC "-//W3C//DTD SVG 20010904//EN"
 "http://www.w3.org/TR/2001/REC-SVG-20010904/DTD/svg10.dtd">
<svg version="1.0" xmlns="http://www.w3.org/2000/svg"
 width="2501.000000pt" height="2501.000000pt" viewBox="0 0 2501.000000 2501.000000"
 preserveAspectRatio="xMidYMid meet">
<metadata>
Created by potrace 1.14, written by Peter Selinger 2001-2017
</metadata>
<g transform="translate(0.000000,2501.000000) scale(0.100000,-0.100000)"
fill="#000000" stroke="none">
<path d="M12158 25005 c-1 -1 -93 -6 -203 -9 -277 -9 -350 -14 -495 -31 -14
-2 -59 -6 -100 -10 -41 -3 -88 -8 -105 -10 -16 -2 -66 -6 -110 -10 -95 -7 -96
-7 -305 -39 -91 -14 -183 -28 -205 -31 -23 -3 -52 -7 -65 -10 -13 -3 -42 -7
-65 -11 -79 -11 -293 -53 -430 -84 -77 -17 -150 -33 -163 -36 -94 -19 -638
-167 -712 -194 -14 -5 -86 -28 -160 -51 -130 -40 -238 -77 -510 -175 -113 -41
-160 -60 -285 -114 -22 -9 -123 -52 -225 -95 -181 -77 -751 -357 -880 -433
-36 -22 -126 -74 -200 -116 -74 -43 -182 -107 -240 -143 -58 -35 -114 -69
-125 -76 -11 -7 -22 -14 -25 -17 -3 -3 -93 -64 -200 -135 -173 -115 -664 -476
-730 -537 -14 -13 -66 -57 -115 -98 -50 -41 -92 -77 -95 -80 -3 -3 -47 -41
-99 -85 -230 -195 -635 -601 -891 -890 -118 -134 -172 -198 -304 -365 -59 -74
-112 -142 -119 -150 -62 -77 -376 -532 -406 -588 -9 -18 321 249 374 302 6 6
27 23 46 38 460 364 744 575 1065 793 33 22 64 43 69 47 6 5 57 38 115 75 58
37 107 70 110 73 13 14 396 250 407 250 2 0 31 18 64 40 33 22 63 40 65 40 3
0 28 15 57 33 29 19 102 60 162 92 61 32 171 92 245 133 140 76 511 261 520
258 3 0 17 6 30 15 73 46 655 296 930 399 107 40 224 83 260 97 98 37 634 213
665 219 6 1 127 33 270 72 237 65 388 103 455 116 22 4 325 71 373 82 40 9 56
13 93 19 22 3 131 21 244 41 113 19 219 37 235 39 17 3 41 7 55 10 14 2 52 7
85 11 33 3 68 8 78 10 10 2 46 6 80 9 34 3 73 8 87 10 14 2 50 7 80 10 58 6
118 14 160 20 45 7 193 18 395 30 55 3 116 8 135 10 73 8 516 18 785 19 246 0
538 -8 690 -19 28 -2 91 -7 140 -10 50 -3 110 -7 135 -10 49 -5 157 -15 205
-20 118 -10 554 -65 634 -80 9 -1 36 -6 61 -9 66 -10 221 -35 250 -41 14 -3
50 -9 80 -15 30 -6 66 -12 80 -15 54 -12 126 -27 150 -31 272 -52 741 -170
1060 -265 195 -59 437 -137 465 -149 11 -5 49 -19 85 -30 36 -11 74 -25 85
-29 11 -5 67 -26 125 -46 58 -21 119 -44 135 -51 17 -7 106 -42 198 -79 421
-166 944 -412 1347 -633 25 -13 74 -40 110 -60 420 -229 970 -580 1379 -881
78 -58 156 -115 171 -126 107 -76 458 -354 624 -494 361 -307 571 -498 991
-906 40 -38 84 -81 99 -95 19 -17 1 22 -60 130 -47 85 -92 165 -100 177 -7 12
-22 37 -33 55 -123 216 -461 710 -628 918 -24 30 -50 62 -56 70 -358 452 -817
934 -1231 1295 -66 58 -99 86 -141 121 -59 49 -194 160 -215 177 -156 125
-221 175 -300 233 -107 80 -221 162 -254 184 -12 8 -105 71 -207 139 -203 136
-365 238 -565 354 -123 70 -163 92 -334 185 -81 44 -497 252 -504 252 -3 0
-34 14 -68 31 -76 37 -421 183 -538 228 -47 18 -94 37 -105 42 -11 5 -40 16
-65 25 -25 9 -94 34 -155 55 -156 57 -536 181 -591 194 -10 2 -107 29 -214 59
-108 30 -209 56 -225 59 -17 3 -57 12 -90 21 -33 9 -72 19 -87 21 -16 3 -58
12 -95 21 -38 9 -76 17 -86 20 -10 2 -26 5 -35 8 -9 3 -32 8 -49 11 -18 3 -48
7 -65 10 -18 3 -40 8 -49 11 -10 2 -31 6 -48 9 -17 2 -54 8 -83 14 -85 18 -98
20 -193 35 -79 13 -110 17 -210 31 -11 2 -54 8 -95 14 -41 5 -99 13 -129 17
-30 3 -61 7 -70 9 -9 1 -50 6 -91 10 -41 4 -88 9 -105 11 -16 2 -64 6 -105 9
-41 3 -95 8 -120 10 -48 4 -204 15 -310 21 -88 5 -817 13 -822 9z"/>
<path d="M4917 16924 c-1 -1 -99 -4 -217 -8 -118 -3 -237 -8 -265 -11 -27 -2
-79 -7 -115 -10 -272 -23 -593 -75 -844 -137 l-168 -41 78 -20 c44 -11 82 -24
85 -30 4 -5 14 -7 24 -4 9 4 13 3 10 -3 -3 -5 8 -16 26 -25 50 -26 172 -154
224 -234 60 -93 124 -229 163 -351 39 -121 52 -173 97 -395 67 -332 87 -423
165 -735 97 -388 219 -793 360 -1190 378 -1066 914 -2033 1516 -2735 142 -165
402 -431 534 -546 47 -41 87 -76 90 -79 15 -16 170 -138 270 -212 594 -439
1314 -737 2015 -833 22 -3 49 -7 60 -10 11 -2 56 -7 100 -10 44 -4 86 -8 93
-11 53 -17 559 -24 792 -11 169 9 525 47 580 62 8 2 33 6 55 10 147 20 321 58
332 71 23 31 34 296 19 454 -23 230 -35 313 -81 527 -50 240 -170 625 -252
813 -9 19 -21 49 -28 65 -262 608 -611 1134 -1058 1589 -42 44 -76 81 -74 82
6 6 251 -229 522 -500 517 -519 898 -971 1212 -1438 62 -92 113 -169 113 -171
0 -2 24 -44 54 -93 158 -263 297 -586 350 -818 9 -37 16 -78 16 -92 0 -27 15
-34 16 -6 1 9 5 69 10 132 16 215 9 966 -11 1093 -2 12 -6 54 -10 92 -10 119
-45 396 -61 480 -7 44 -16 98 -20 120 -3 22 -21 113 -39 201 -146 698 -372
1288 -732 1914 -106 185 -365 547 -518 725 -160 187 -396 430 -525 541 -25 22
-51 45 -58 52 -119 111 -482 383 -679 508 -692 440 -1563 807 -2388 1009 -200
48 -505 110 -645 129 -19 3 -82 12 -140 20 -58 8 -134 18 -170 21 -36 4 -75 8
-88 10 -12 2 -64 7 -115 10 -50 4 -103 9 -117 11 -14 2 -122 7 -240 10 -118 3
-239 7 -268 7 -30 1 -54 2 -55 1z m3094 -2661 c13 -16 12 -17 -3 -4 -17 13
-22 21 -14 21 2 0 10 -8 17 -17z m100 -80 c13 -16 12 -17 -3 -4 -17 13 -22 21
-14 21 2 0 10 -8 17 -17z m270 -220 c13 -16 12 -17 -3 -4 -17 13 -22 21 -14
21 2 0 10 -8 17 -17z m110 -90 c13 -16 12 -17 -3 -4 -10 7 -18 15 -18 17 0 8
8 3 21 -13z m304 -263 c10 -11 16 -20 13 -20 -3 0 -13 9 -23 20 -10 11 -16 20
-13 20 3 0 13 -9 23 -20z m170 -150 c10 -11 16 -20 13 -20 -3 0 -13 9 -23 20
-10 11 -16 20 -13 20 3 0 13 -9 23 -20z m446 -417 c13 -16 12 -17 -3 -4 -10 7
-18 15 -18 17 0 8 8 3 21 -13z"/>
<path d="M17029 14326 c-2 -2 -55 -7 -118 -11 -63 -4 -121 -8 -130 -10 -9 -1
-47 -6 -86 -9 -263 -26 -660 -108 -935 -192 -1333 -410 -2273 -1189 -2759
-2285 -194 -440 -316 -943 -348 -1444 -11 -167 -8 -559 4 -592 3 -7 31 41 63
105 249 506 624 977 1152 1448 148 133 526 424 608 469 8 4 -51 -59 -132 -141
-81 -82 -181 -189 -224 -239 -354 -417 -594 -871 -718 -1363 -22 -83 -33 -139
-61 -312 -8 -45 -25 -214 -27 -275 l-3 -60 65 -32 c82 -40 281 -120 428 -172
296 -105 624 -187 912 -226 63 -9 129 -18 145 -20 60 -9 293 -19 430 -19 983
0 1919 394 2719 1144 408 383 752 827 1024 1321 129 236 174 306 302 479 187
254 462 534 685 701 33 24 62 46 65 50 24 27 322 221 445 289 100 56 306 156
372 181 35 13 63 27 63 31 0 17 -291 204 -501 321 -587 327 -1239 578 -1874
720 -161 37 -399 79 -510 92 -33 4 -69 9 -80 11 -11 2 -67 9 -125 14 -58 6
-123 13 -145 15 -48 6 -701 16 -706 11z m1298 -1092 c-3 -3 -12 -4 -19 -1 -8
3 -5 6 6 6 11 1 17 -2 13 -5z m2006 -11 c-7 -2 -19 -2 -25 0 -7 3 -2 5 12 5
14 0 19 -2 13 -5z m-2486 -39 c-3 -3 -12 -4 -19 -1 -8 3 -5 6 6 6 11 1 17 -2
13 -5z m-190 -30 c-3 -3 -12 -4 -19 -1 -8 3 -5 6 6 6 11 1 17 -2 13 -5z
m-2287 -738 c0 -2 -7 -7 -16 -10 -8 -3 -12 -2 -9 4 6 10 25 14 25 6z m-710
-470 c0 -2 -8 -10 -17 -17 -16 -13 -17 -12 -4 4 13 16 21 21 21 13z m-50 -40
c0 -2 -8 -10 -17 -17 -16 -13 -17 -12 -4 4 13 16 21 21 21 13z m-70 -59 c0 -2
-10 -12 -22 -23 l-23 -19 19 23 c18 21 26 27 26 19z"/>
<path d="M12178 9568 c-333 -43 -622 -267 -749 -578 -64 -158 -62 -133 -66
-1042 -2 -456 0 -828 4 -828 7 0 239 33 321 45 60 9 97 15 512 75 228 33 429
62 445 65 17 2 82 12 145 20 63 9 126 18 140 20 14 3 59 9 101 15 41 6 84 12
95 14 10 2 37 7 60 10 l40 7 -1 682 c-2 754 -3 759 -68 917 -53 129 -106 209
-207 310 -101 101 -181 154 -310 207 -134 56 -319 80 -462 61z"/>
<path d="M15898 7295 c-2 -2 -30 -5 -63 -9 -33 -3 -184 -24 -335 -46 -151 -22
-293 -43 -315 -45 -22 -3 -65 -10 -95 -15 -30 -5 -152 -23 -270 -40 -118 -17
-226 -33 -240 -35 -14 -2 -45 -6 -70 -10 -25 -3 -56 -8 -70 -10 -14 -2 -45 -7
-70 -10 -25 -3 -101 -15 -170 -25 -69 -11 -141 -21 -160 -24 -52 -7 -281 -41
-665 -97 -187 -27 -369 -54 -405 -59 -36 -5 -81 -12 -100 -14 -19 -3 -111 -17
-205 -30 -93 -14 -217 -32 -275 -40 -58 -8 -121 -18 -140 -21 -19 -2 -80 -11
-135 -20 -55 -8 -116 -17 -135 -20 -19 -3 -145 -21 -280 -40 -135 -20 -256
-38 -270 -40 -14 -2 -61 -9 -105 -15 -44 -6 -91 -13 -105 -16 -14 -2 -106 -15
-205 -29 -99 -14 -189 -27 -200 -29 -11 -2 -42 -7 -70 -10 -27 -4 -61 -9 -75
-11 -14 -2 -74 -11 -135 -20 -60 -9 -117 -17 -125 -20 -8 -2 -40 -6 -71 -10
-31 -3 -66 -7 -76 -9 -11 -3 -44 -7 -74 -11 -30 -4 -56 -8 -59 -10 -3 -1 -30
-6 -61 -9 -31 -4 -66 -8 -77 -11 -11 -2 -42 -6 -69 -10 -26 -4 -59 -8 -72 -11
-13 -2 -45 -6 -70 -10 -25 -3 -57 -8 -71 -10 -14 -2 -89 -13 -165 -24 -77 -11
-153 -22 -170 -24 -16 -3 -158 -23 -315 -46 -157 -23 -296 -43 -310 -46 -30
-5 -91 -12 -180 -19 -400 -35 -726 -305 -830 -690 -30 -109 -37 -292 -17 -401
58 -301 241 -542 508 -669 184 -87 386 -110 619 -71 31 5 232 35 280 41 19 3
46 7 60 10 14 2 45 7 70 10 25 3 54 7 65 9 18 3 65 10 155 22 19 3 60 9 90 14
30 5 75 12 100 14 25 3 56 8 70 10 14 3 61 10 105 16 44 6 91 13 105 15 14 2
48 7 75 11 28 3 58 8 67 10 9 1 68 10 130 19 62 9 124 18 138 20 14 3 135 20
270 40 322 46 311 44 340 50 14 2 45 7 70 10 25 3 54 7 65 9 11 2 43 7 70 10
28 4 140 20 250 37 110 16 295 43 410 59 116 17 221 32 235 35 14 2 45 6 70
10 25 4 56 8 70 10 14 3 122 18 240 35 118 17 226 33 240 35 14 2 88 13 165
24 170 25 620 90 655 96 34 5 177 26 209 30 14 2 71 11 126 19 55 8 118 17
140 20 22 3 164 24 315 46 151 22 293 42 315 45 22 3 65 10 95 15 30 5 73 11
95 14 22 3 103 15 180 26 512 75 971 139 1035 145 403 34 728 310 832 706 31
118 31 317 0 443 -86 347 -359 610 -707 681 -68 13 -239 27 -247 20z"/>
<path d="M14905 4806 c-121 -19 -238 -36 -260 -39 -34 -5 -549 -81 -795 -117
-41 -6 -91 -13 -110 -16 -19 -3 -219 -32 -445 -65 -465 -68 -871 -127 -930
-135 -22 -3 -47 -7 -55 -9 -8 -2 -37 -6 -65 -10 -27 -3 -156 -22 -285 -41
-129 -19 -253 -37 -275 -40 -22 -3 -112 -16 -200 -29 -88 -13 -257 -38 -375
-55 -118 -17 -228 -33 -245 -36 -47 -7 -87 -13 -125 -18 -85 -12 -399 -57
-550 -80 -91 -14 -183 -27 -205 -30 -33 -5 -210 -30 -420 -61 -22 -3 -51 -8
-65 -10 -14 -3 -59 -7 -100 -10 -133 -10 -196 -22 -297 -60 -162 -61 -308
-171 -414 -311 -214 -283 -248 -657 -87 -979 152 -307 475 -510 808 -509 52 0
265 27 460 59 14 2 75 11 135 20 61 8 126 18 145 21 19 3 142 21 274 40 131
19 250 36 265 38 14 3 51 8 81 12 30 4 57 8 60 9 3 1 32 5 65 9 32 4 67 9 77
11 9 2 68 11 130 20 62 9 124 18 138 20 53 8 297 44 345 51 28 3 57 7 65 9 23
4 91 14 135 20 33 4 204 29 350 50 48 8 636 94 790 116 77 11 151 22 165 24
14 2 45 6 70 10 25 3 56 8 70 10 14 2 45 7 70 10 25 3 56 8 70 10 14 3 135 21
269 40 134 20 258 38 275 40 17 3 110 16 206 30 96 14 186 28 200 30 26 4 157
23 220 31 19 3 46 7 60 9 65 11 230 35 275 40 28 4 57 8 65 10 8 2 39 7 69 10
30 4 63 9 75 11 12 2 68 8 126 13 158 15 246 38 370 101 121 61 267 187 339
293 72 106 137 264 156 382 22 132 6 329 -36 450 -27 77 -98 212 -141 267 -93
120 -240 235 -371 291 -195 82 -313 90 -622 43z"/>
<path d="M13590 2277 c-3 -3 -27 -8 -55 -11 -60 -8 -91 -13 -170 -26 -133 -21
-252 -40 -285 -44 -19 -2 -75 -11 -125 -19 -49 -9 -108 -18 -130 -21 -22 -3
-143 -21 -270 -41 -126 -19 -246 -37 -265 -40 -19 -3 -60 -10 -90 -15 -30 -5
-73 -12 -95 -15 -56 -8 -287 -43 -360 -55 -98 -16 -307 -48 -355 -55 -25 -3
-127 -19 -228 -35 -100 -17 -222 -32 -270 -36 -285 -19 -545 -161 -706 -387
-421 -591 -40 -1409 685 -1472 55 -5 152 7 414 50 50 8 106 17 125 19 19 3 80
12 135 21 117 18 216 33 265 40 19 3 49 8 65 10 17 3 120 19 230 36 110 16
207 31 215 34 8 2 38 6 65 10 28 3 57 8 65 10 8 2 35 6 60 9 25 4 56 8 70 10
14 3 43 7 65 10 22 4 51 8 65 11 14 2 41 6 60 9 29 4 197 30 340 52 19 3 148
23 287 45 139 21 271 39 295 39 59 0 220 35 287 61 245 98 430 280 531 522 74
178 86 406 31 603 -107 379 -447 653 -836 671 -60 3 -112 3 -115 0z"/>
</g>
</svg>
